<?xml version="1.0" encoding="utf-8"?>
<!-- Generator: Adobe Illustrator 18.0.0, SVG Export Plug-In . SVG Version: 6.00 Build 0)  -->
<!DOCTYPE svg PUBLIC "-//W3C//DTD SVG 1.1//EN" "http://www.w3.org/Graphics/SVG/1.1/DTD/svg11.dtd">
<svg version="1.1" id="Livello_1" xmlns="http://www.w3.org/2000/svg" xmlns:xlink="http://www.w3.org/1999/xlink" x="0px" y="0px"
	 viewBox="0 0 29 27" enable-background="new 0 0 29 27" xml:space="preserve">
<g>
	<path fill="#007AFF" d="M18.4,13.5l8.2-8.2c1.1-1.1,1.1-3,0-4.1L26.5,1c-1.1-1.1-3-1.1-4.1,0l-8.2,8.2L5.9,1c-1.1-1.1-3-1.1-4.1,0
		L1.7,1.1c-1.1,1.1-1.1,3,0,4.1l8.2,8.2l-8.2,8.2c-1.1,1.1-1.1,3,0,4.1l0.1,0.1c1.1,1.1,3,1.1,4.1,0l8.2-8.2l8.2,8.2
		c1.1,1.1,3,1.1,4.1,0l0.1-0.1c1.1-1.1,1.1-3,0-4.1L18.4,13.5z"/>
</g>
</svg>
