<svg version="1.1" id="Livello_1" xmlns="http://www.w3.org/2000/svg" xmlns:xlink="http://www.w3.org/1999/xlink" x="0px" y="0px"
	 viewBox="0 0 29 27" enable-background="new 0 0 29 27" xml:space="preserve">
<g>
	<g>
		<path fill="#007AFF" d="M14.7,26.9c-7.4,0-13.4-6-13.4-13.4s6-13.4,13.4-13.4s13.4,6,13.4,13.4S22.1,26.9,14.7,26.9z M14.7,3.4
			C9.1,3.4,4.5,8,4.5,13.6s4.6,10.2,10.2,10.2s10.2-4.6,10.2-10.2S20.3,3.4,14.7,3.4z"/>
	</g>
	<g>
		<path fill="#007AFF" d="M14.6,7.6h0.3c0.8,0,1.5,0.7,1.5,1.5v9.1c0,0.8-0.7,1.5-1.5,1.5h-0.3c-0.8,0-1.5-0.7-1.5-1.5V9
			C13.1,8.2,13.8,7.6,14.6,7.6z"/>
	</g>
</g>
</svg>
